<?xml version="1.0" standalone="no"?>
<!DOCTYPE svg PUBLIC "-//W3C//DTD SVG 20010904//EN"
 "http://www.w3.org/TR/2001/REC-SVG-20010904/DTD/svg10.dtd">
<svg version="1.0" xmlns="http://www.w3.org/2000/svg"
 width="960.000000pt" height="960.000000pt" viewBox="0 0 960.000000 960.000000"
 preserveAspectRatio="xMidYMid meet">
<metadata>
Created by potrace 1.14, written by Peter Selinger 2001-2017
</metadata>
<g transform="translate(0.000000,960.000000) scale(0.100000,-0.100000)"
fill="#000000" stroke="none">
<path d="M0 4800 l0 -4800 1400 0 1400 0 0 200 0 200 600 0 600 0 0 -200 0
-200 200 0 200 0 0 205 0 205 203 -2 202 -3 3 -203 2 -202 2395 0 2395 0 0
4800 0 4800 -4800 0 -4800 0 0 -4800z m3599 3997 c6 -9 12 -83 13 -198 l3
-184 587 -3 588 -2 2 197 3 198 196 3 c156 2 199 0 208 -11 8 -10 12 -181 13
-598 l3 -584 187 -3 188 -2 2 197 3 198 198 3 197 2 0 190 0 190 -189 0 c-148
0 -191 3 -200 14 -8 9 -11 73 -9 207 l3 194 194 3 c134 2 198 -1 207 -9 11 -9
14 -52 14 -200 l0 -189 188 0 c133 0 192 -4 200 -12 9 -9 12 -112 12 -400 l0
-388 188 2 187 3 3 186 c2 143 6 190 16 198 9 8 75 11 207 9 l194 -3 5 -395 5
-395 186 -3 c143 -2 190 -6 198 -16 8 -9 11 -75 9 -207 l-3 -194 -197 -3 -198
-2 -2 -598 -3 -597 -200 0 -200 0 -3 203 -2 202 -200 0 -200 0 0 -200 0 -200
-1800 0 -1800 0 0 200 0 200 -200 0 -200 0 0 -400 0 -400 -205 0 -205 0 -2
393 -3 392 -184 3 c-115 1 -189 7 -198 13 -10 9 -13 90 -13 400 l0 389 -197 2
-198 3 -3 194 c-2 134 1 198 9 207 9 11 82 14 400 14 l389 0 2 198 3 197 395
5 395 5 3 188 2 187 -389 0 c-318 0 -391 3 -400 14 -8 9 -11 73 -9 207 l3 194
598 3 597 2 0 193 c0 107 3 197 7 200 3 4 93 7 198 7 148 0 195 -3 204 -13z
m-2000 -3601 c8 -9 11 -73 9 -207 l-3 -194 -194 -3 c-134 -2 -198 1 -207 9
-11 9 -14 52 -14 204 0 105 3 195 7 198 3 4 93 7 198 7 152 0 195 -3 204 -14z
m1601 -396 l0 -400 200 0 200 0 0 200 0 200 400 0 400 0 0 -200 0 -200 200 0
200 0 0 400 0 400 200 0 200 0 0 -400 0 -400 200 0 200 0 0 200 0 200 400 0
400 0 0 -200 0 -200 -400 0 -400 0 0 -200 0 -200 400 0 400 0 0 -1200 0 -1200
-200 0 -200 0 0 -200 0 -200 -1000 0 -1000 0 0 -200 0 -200 -600 0 -600 0 0
1600 0 1600 -200 0 -200 0 0 200 0 200 -200 0 -199 0 -3 203 -3 202 203 -3
202 -3 0 -199 0 -200 200 0 200 0 0 400 0 400 200 0 200 0 0 -400z"/>
<path d="M3600 4200 l0 -200 400 0 400 0 0 200 0 200 -400 0 -400 0 0 -200z"/>
<path d="M4800 3600 l0 -400 200 0 200 0 0 400 0 400 -200 0 -200 0 0 -400z"/>
<path d="M4000 2600 l0 -200 200 0 200 0 0 -200 0 -200 800 0 800 0 0 200 0
200 -800 0 -800 0 0 200 0 200 -200 0 -200 0 0 -200z"/>
</g>
</svg>
