<?xml version="1.0" standalone="no"?>
<!DOCTYPE svg PUBLIC "-//W3C//DTD SVG 20010904//EN"
 "http://www.w3.org/TR/2001/REC-SVG-20010904/DTD/svg10.dtd">
<svg version="1.0" xmlns="http://www.w3.org/2000/svg"
 width="960.000000pt" height="960.000000pt" viewBox="0 0 960.000000 960.000000"
 preserveAspectRatio="xMidYMid meet">
<metadata>
Created by potrace 1.14, written by Peter Selinger 2001-2017
</metadata>
<g transform="translate(0.000000,960.000000) scale(0.100000,-0.100000)"
fill="#000000" stroke="none">
<path d="M0 4800 l0 -4800 1400 0 1400 0 0 195 0 195 600 0 600 0 0 -195 0
-195 200 0 200 0 0 205 0 205 203 -2 202 -3 3 -203 2 -202 2395 0 2395 0 0
4800 0 4800 -4800 0 -4800 0 0 -4800z m3594 3994 c13 -13 16 -46 16 -200 l0
-184 590 0 590 0 0 188 c0 133 4 192 12 200 8 8 66 12 194 12 153 0 185 -3
198 -16 14 -14 16 -82 16 -600 l0 -584 190 0 190 0 0 188 c0 133 4 192 12 200
8 8 67 12 200 12 l188 0 0 190 0 190 -184 0 c-154 0 -187 3 -200 16 -13 13
-16 45 -16 198 0 128 4 186 12 194 8 8 66 12 194 12 153 0 185 -3 198 -16 13
-13 16 -46 16 -200 l0 -184 184 0 c154 0 187 -3 200 -16 14 -13 16 -64 16
-400 l0 -384 190 0 190 0 0 184 c0 154 3 187 16 200 23 24 389 24 398 0 3 -9
6 -189 6 -400 l0 -384 184 0 c154 0 187 -3 200 -16 13 -13 16 -45 16 -198 0
-128 -4 -186 -12 -194 -8 -8 -67 -12 -200 -12 l-188 0 0 -584 c0 -321 -3 -591
-6 -600 -5 -14 -32 -16 -189 -16 -101 0 -190 3 -199 6 -14 5 -16 33 -16 205
l0 199 -200 0 -200 0 0 -200 0 -200 -1800 0 -1800 0 0 200 0 200 -200 0 -200
0 0 -400 0 -400 -202 2 -203 3 -1 35 c0 19 -1 196 -2 393 l-2 357 -184 0
c-154 0 -187 3 -200 16 -14 13 -16 64 -16 400 l0 384 -188 0 c-133 0 -192 4
-200 12 -8 8 -12 66 -12 194 0 153 3 185 16 198 13 14 64 16 400 16 l384 0 0
188 c0 133 4 192 12 200 9 9 112 12 400 12 l388 0 0 190 0 190 -384 0 c-336 0
-387 2 -400 16 -13 13 -16 45 -16 198 0 128 4 186 12 194 9 9 156 12 600 12
l588 0 0 188 c0 133 4 192 12 200 8 8 66 12 194 12 153 0 185 -3 198 -16z
m-2000 -3600 c13 -13 16 -45 16 -198 0 -128 -4 -186 -12 -194 -8 -8 -66 -12
-194 -12 -153 0 -185 3 -198 16 -13 13 -16 45 -16 198 0 128 4 186 12 194 8 8
66 12 194 12 153 0 185 -3 198 -16z m1606 -394 l0 -400 200 0 200 0 0 -200 0
-200 400 0 400 0 0 200 0 200 200 0 200 0 0 400 0 400 200 0 200 0 0 -400 0
-400 200 0 200 0 0 -200 0 -200 400 0 400 0 0 -1200 0 -1200 -200 0 -200 0 0
-200 0 -200 -1000 0 -1000 0 0 -200 0 -201 -586 1 c-322 1 -592 4 -600 7 -12
4 -14 226 -14 1599 l0 1594 -200 0 -200 0 0 200 0 200 -200 0 -200 0 0 201 0
201 400 -7 400 -7 0 206 0 206 200 0 200 0 0 -400z m1198 -197 l-3 -198 -395
0 -395 0 -3 198 -2 197 400 0 400 0 -2 -197z m2000 0 l-3 -198 -395 0 -395 0
-3 198 -2 197 400 0 400 0 -2 -197z"/>
<path d="M3605 5990 c-11 -17 5 -32 21 -19 7 6 11 15 8 20 -7 12 -21 11 -29
-1z"/>
<path d="M5205 5990 c-11 -17 5 -32 21 -19 7 6 11 15 8 20 -7 12 -21 11 -29
-1z"/>
<path d="M5966 5991 c-3 -5 1 -14 8 -20 16 -13 32 2 21 19 -8 12 -22 13 -29 1z"/>
<path d="M4000 2600 l0 -199 184 -3 c100 -2 190 -2 200 0 14 3 16 26 16 203
l0 199 -200 0 -200 0 0 -200z"/>
<path d="M4400 2200 l0 -200 800 0 800 0 0 200 0 200 -800 0 -800 0 0 -200z"/>
</g>
</svg>
